<?xml version="1.0" encoding="iso-8859-1"?>
<!-- Uploaded to: SVG Repo, www.svgrepo.com, Generator: SVG Repo Mixer Tools -->
<svg fill="#000000" height="800px" width="800px" version="1.1" id="Layer_1" xmlns="http://www.w3.org/2000/svg" xmlns:xlink="http://www.w3.org/1999/xlink" 
	 viewBox="0 0 512 512" xml:space="preserve">
<g>
	<g>
		<path d="M416,213.333c-13.952,0-27.136,3.136-39.104,8.512c-4.437-10.261-8.576-20.395-12.309-29.845h72.747
			c3.691,0,7.125-1.92,9.067-5.056c1.941-3.136,2.133-7.083,0.469-10.368l-21.333-42.667c-2.645-5.269-9.045-7.381-14.315-4.779
			c-5.269,2.645-7.403,9.045-4.779,14.315l13.632,27.221h-63.616c-1.963-5.376-3.691-10.176-5.035-14.123
			c-0.256-0.725-0.576-1.408-0.96-2.069c-2.944-4.885-29.845-47.808-62.464-47.808c-5.888,0-10.667,4.779-10.667,10.667
			S282.112,128,288,128c16.96,0,37.056,26.155,43.627,36.587c1.344,3.883,4.395,12.544,8.619,23.701L229.995,289.344
			l-36.928-147.691l21.76-3.115c5.824-0.832,9.877-6.229,9.045-12.075c-0.832-5.845-6.229-9.877-12.075-9.045l-74.667,10.667
			c-5.824,0.832-9.877,6.229-9.045,12.075c0.789,5.333,5.333,9.173,10.581,9.173c0.491,0,1.003-0.021,1.515-0.107l31.68-4.523
			l14.891,59.584c-0.619,0.363-1.28,0.576-1.835,1.067l-31.211,27.733C137.6,220.885,117.739,213.333,96,213.333
			c-52.928,0-96,43.072-96,96c0,52.928,43.072,96,96,96c50.219,0,91.072-38.869,95.189-88.043l31.915,2.667
			c0.299,0.043,0.597,0.043,0.875,0.043H224c0.853,0,1.707-0.107,2.56-0.32c0.213-0.043,0.363-0.192,0.555-0.256
			c0.768-0.235,1.451-0.619,2.133-1.024c0.512-0.299,1.024-0.533,1.472-0.917c0.149-0.107,0.32-0.171,0.469-0.277l117.355-107.584
			c3.008,7.467,6.293,15.339,9.835,23.403C335.211,250.581,320,278.101,320,309.333c0,52.928,43.072,96,96,96s96-43.072,96-96
			C512,256.405,468.928,213.333,416,213.333z M169.067,294.037l-47.381-3.947l31.595-28.075
			C160.875,271.189,166.549,281.984,169.067,294.037z M96,384c-41.173,0-74.667-33.493-74.667-74.667
			c0-41.173,33.493-74.667,74.667-74.667c15.403,0,29.739,4.693,41.643,12.736l-48.725,43.307
			c-3.179,2.837-4.395,7.296-3.029,11.349c1.344,4.032,4.971,6.891,9.237,7.253l74.923,6.251C166.827,353.771,135.04,384,96,384z
			 M190.635,295.851c-2.581-18.155-10.197-34.517-21.483-47.936l23.317-20.736l17.579,70.293L190.635,295.851z M416,384
			c-41.173,0-74.667-33.493-74.667-74.667c0-22.571,10.283-42.603,26.176-56.299c12.928,27.136,27.712,52.821,41.643,64.491
			c1.984,1.664,4.416,2.475,6.848,2.475c3.051,0,6.08-1.301,8.192-3.819c3.776-4.523,3.179-11.243-1.323-15.04
			c-11.413-9.557-24.853-33.515-37.205-59.883c9.28-4.16,19.499-6.592,30.336-6.592c41.173,0,74.667,33.493,74.667,74.667
			C490.667,350.507,457.173,384,416,384z"/>
	</g>
</g>
</svg>